<svg xmlns="http://www.w3.org/2000/svg" width="1200" height="630" viewBox="0 0 1200 630">
  <defs>
    <linearGradient id="bg" x1="0%" y1="0%" x2="100%" y2="100%">
      <stop offset="0%" stop-color="#4f46e5"/>
      <stop offset="100%" stop-color="#4338ca"/>
    </linearGradient>
    <linearGradient id="accentGrad" x1="0%" y1="0%" x2="100%" y2="0%">
      <stop offset="0%" stop-color="#818cf8"/>
      <stop offset="100%" stop-color="#4338ca"/>
    </linearGradient>
  </defs>

  <!-- 배경 -->
  <rect width="1200" height="630" fill="url(#bg)"/>

  <!-- Geometric pattern -->
  <circle cx="243" cy="396" r="86" fill="#4338ca" opacity="0.14"/>
    <circle cx="1133" cy="-95" r="72" fill="#4338ca" opacity="0.06"/>
    <circle cx="1206" cy="-77" r="66" fill="#4338ca" opacity="0.20"/>
    <circle cx="462" cy="400" r="44" fill="#4338ca" opacity="0.12"/>
    <circle cx="-61" cy="486" r="33" fill="#4338ca" opacity="0.15"/>
    <circle cx="49" cy="416" r="40" fill="#4338ca" opacity="0.18"/>
    <rect x="1223" y="10" width="86" height="51" rx="8" fill="#4f46e5" opacity="0.12" transform="rotate(41, 554, 511)"/>
    <rect x="911" y="394" width="30" height="72" rx="8" fill="#4f46e5" opacity="0.06" transform="rotate(24, 593, 619)"/>
    <rect x="116" y="477" width="90" height="80" rx="8" fill="#4f46e5" opacity="0.12" transform="rotate(12, 841, 697)"/>
    <rect x="763" y="520" width="35" height="21" rx="8" fill="#4f46e5" opacity="0.13" transform="rotate(44, 374, 163)"/>
    <rect x="372" y="87" width="30" height="77" rx="8" fill="#4f46e5" opacity="0.08" transform="rotate(3, 921, -73)"/>
    <rect x="56" y="493" width="62" height="47" rx="8" fill="#4f46e5" opacity="0.04" transform="rotate(27, 1057, 461)"/>
    <rect x="-28" y="190" width="76" height="34" rx="8" fill="#4f46e5" opacity="0.14" transform="rotate(8, 369, -18)"/>
    <rect x="1281" y="219" width="89" height="77" rx="8" fill="#4f46e5" opacity="0.14" transform="rotate(6, 72, 136)"/>
    <polygon points="1131,258 1216,428 1046,428" fill="#4338ca" opacity="0.12"/>
    <polygon points="1103,541 1184,703 1022,703" fill="#4338ca" opacity="0.07"/>
    <polygon points="301,634 341,714 261,714" fill="#4338ca" opacity="0.05"/>
    <polygon points="393,103 418,153 368,153" fill="#4338ca" opacity="0.13"/>

  <!-- Wave at bottom -->
  <path d="M0,558 C360,594 840,522 1200,558 L1200,630 L0,630Z" fill="#4338ca" opacity="0.3"/>

  <!-- 중앙 텍스트 카드 -->
  <rect x="80" y="195" width="1040" height="260" rx="20" fill="rgba(0,0,0,0.35)" filter="url(#blur-bg)"/>
  <filter id="blur-bg"><feGaussianBlur stdDeviation="8"/></filter>

  <text x="600" y="270" text-anchor="middle" font-family="'Noto Sans JP','Noto Sans KR','Pretendard',sans-serif" font-size="44" font-weight="700" fill="#ffffff" letter-spacing="2">
    서울 중구 을지로 256 3층
010-7789-6899
풋쌤 동대문점

  </text>
  <text x="600" y="330" text-anchor="middle" font-family="'Noto Sans JP','Noto Sans KR','Pretendard',sans-serif" font-size="22" font-weight="400" fill="rgba(255,255,255,0.85)">
     — 마사지
  </text>

  <!-- Accent line -->
  <line x1="450" y1="355" x2="750" y2="355" stroke="#818cf8" stroke-width="3" stroke-linecap="round" opacity="0.8"/>

  <!-- 하단 CTA -->
  <rect x="440" y="385" width="320" height="40" rx="20" fill="#818cf8" opacity="0.9"/>
  <text x="600" y="411" text-anchor="middle" font-family="'Noto Sans JP','Noto Sans KR','Pretendard',sans-serif" font-size="16" font-weight="600" fill="#ffffff">
    ▼ 자세히 보기
  </text>

  <!-- 상단 브랜드 -->
  <text x="60" y="55" font-family="'Noto Sans JP','Noto Sans KR','Pretendard',sans-serif" font-size="18" font-weight="600" fill="rgba(255,255,255,0.6)">
     서울 중구 을지로 256 3층
010-7789-6899
풋쌤 동대문점
 — 마사지
  </text>
</svg>